<?xml version="1.0" encoding="UTF-8"?>
<svg version="1.1" xmlns="http://www.w3.org/2000/svg" width="1500" height="300">
<path d="M0 0 C495 0 990 0 1500 0 C1500 99 1500 198 1500 300 C1005 300 510 300 0 300 C0 201 0 102 0 0 Z M17 17 C17 104.78 17 192.56 17 283 C500.78 283 984.56 283 1483 283 C1483 195.22 1483 107.44 1483 17 C999.22 17 515.44 17 17 17 Z " fill="#000000" transform="translate(0,0)"/>
<path d="M0 0 C14.52 0 29.04 0 44 0 C53.3490541 10.60489719 53.3490541 10.60489719 54.77734375 15.6015625 C56.97946262 22.30277647 60.25363369 27.89001126 63.9375 33.875 C65.12270555 35.89651448 66.30238827 37.92127697 67.4765625 39.94921875 C76.00243351 54.5908621 84.53866207 69.226452 93.09970093 83.8475647 C93.86174576 85.14928599 94.62348879 86.45118401 95.38491821 87.75326538 C96.4484355 89.57170719 97.51312515 91.38945744 98.578125 93.20703125 C99.19075195 94.2535083 99.80337891 95.29998535 100.43457031 96.37817383 C101.57215776 98.28343764 102.76909847 100.15364771 104 102 C104.33 68.34 104.66 34.68 105 0 C118.86 0 132.72 0 147 0 C147 56.1 147 112.2 147 170 C132.15 170 117.3 170 102 170 C90.55291971 156.31934307 90.55291971 156.31934307 88.265625 149.984375 C85.43843728 142.68432312 81.79128532 136.30212716 77.58822632 129.71768188 C75.77652368 126.85804804 74.03452494 123.95661448 72.28515625 121.05859375 C71.57860331 119.89417696 70.87173276 118.72995283 70.16455078 117.56591797 C68.30323321 114.49986343 66.44273616 111.43331175 64.58248901 108.36660767 C63.06545455 105.86577956 61.54811828 103.36513464 60.03076172 100.86450195 C58.981154 99.13445404 57.93197396 97.40414669 56.8828125 95.67382812 C52.28497299 88.09691509 47.64519968 80.54844949 43 73 C42.67 105.01 42.34 137.02 42 170 C28.14 170 14.28 170 0 170 C0 113.9 0 57.8 0 0 Z " fill="#000000" transform="translate(883,65)"/>
<path d="M0 0 C108.14172535 0 108.14172535 0 126.6875 17.25 C136.47731037 27.6076648 139.53536343 39.39319559 139.41748047 53.29907227 C139.02657922 65.0101294 134.95906523 74.34825162 127 83 C122.75009274 86.60540181 118.57370495 89.95173439 113 91 C113 91.66 113 92.32 113 93 C113.969375 93.04125 114.93875 93.0825 115.9375 93.125 C122.08955324 94.05901618 126.96601238 97.48564509 130.8359375 102.26953125 C136.6859407 111.32990206 137.2895291 121.37099034 138.0703125 131.9140625 C138.19924393 133.55754166 138.19924393 133.55754166 138.33078003 135.23422241 C138.60117442 138.69740413 138.86322316 142.16115734 139.125 145.625 C139.30804019 147.98832419 139.4916286 150.35160598 139.67578125 152.71484375 C140.12454808 158.47603955 140.56199805 164.23793556 141 170 C126.48 170 111.96 170 97 170 C95.6875 148.5625 95.6875 148.5625 95.2956543 141.84985352 C95.18112989 140.06780952 95.06570965 138.28582278 94.94921875 136.50390625 C94.89979126 135.59991089 94.85036377 134.69591553 94.79943848 133.76452637 C94.33347787 126.8978854 93.56623111 119.7800837 88.75 114.5625 C82.80774717 111.18621998 76.88677189 110.68514463 70.22265625 110.5859375 C69.50235229 110.56829346 68.78204834 110.55064941 68.03991699 110.5324707 C65.3809939 110.4699935 62.72171656 110.42340153 60.0625 110.375 C54.101875 110.25125 48.14125 110.1275 42 110 C42 129.8 42 149.6 42 170 C28.14 170 14.28 170 0 170 C0 113.9 0 57.8 0 0 Z M42 35 C42 48.2 42 61.4 42 75 C47.89875 75.0825 53.7975 75.165 59.875 75.25 C61.71562012 75.28641602 63.55624023 75.32283203 65.45263672 75.36035156 C78.92393138 75.63664657 78.92393138 75.63664657 90.62451172 69.5871582 C95.14019289 64.58175726 96.42433939 59.83295689 96.25 53.2734375 C95.56889084 47.07960107 92.67734371 42.91591566 88 39 C81.64877487 35.29511867 76.09090089 34.85164583 68.85546875 34.90234375 C68.17246704 34.90335083 67.48946533 34.90435791 66.7857666 34.90539551 C64.2529938 34.91059743 61.72024508 34.92455855 59.1875 34.9375 C50.6796875 34.9684375 50.6796875 34.9684375 42 35 Z " fill="#000000" transform="translate(185,65)"/>
<path d="M0 0 C101.67375887 0 101.67375887 0 125 22 C143.29749173 40.7258611 147.50588306 64.96198796 147.21484375 90.20703125 C146.8607986 103.42984794 144.63896943 115.96265837 139 128 C138.58105469 128.92941406 138.16210938 129.85882813 137.73046875 130.81640625 C128.82184929 148.86470446 112.79030773 159.45993465 94.25 165.96484375 C66.09334065 174.19084452 25.87266199 170 0 170 C0 113.9 0 57.8 0 0 Z M42 35 C42 68 42 101 42 135 C69.38496785 136.03884569 69.38496785 136.03884569 91.99609375 124.2890625 C102.15390938 113.93464399 103.87638888 98.70097643 104.02294922 84.82763672 C103.84551025 70.86802908 101.5776916 55.84879153 91.8125 45.1875 C77.97975034 32.49250897 59.89282984 35 42 35 Z " fill="#000000" transform="translate(1049,65)"/>
<path d="M0 0 C13.86 0 27.72 0 42 0 C42 22.11 42 44.22 42 67 C60.48 67 78.96 67 98 67 C98 44.89 98 22.78 98 0 C111.86 0 125.72 0 140 0 C140 56.1 140 112.2 140 170 C126.14 170 112.28 170 98 170 C98 147.56 98 125.12 98 102 C79.52 102 61.04 102 42 102 C42 124.44 42 146.88 42 170 C28.14 170 14.28 170 0 170 C0 113.9 0 57.8 0 0 Z " fill="#000000" transform="translate(555,65)"/>
<path d="M0 0 C1.87558594 -0.0153479 1.87558594 -0.0153479 3.7890625 -0.03100586 C15.44658414 0.07843647 26.82089855 1.58958995 37.1875 7.1875 C38.19393555 7.71573364 38.19393555 7.71573364 39.22070312 8.25463867 C53.1857412 15.76608522 62.67931141 27.06109643 67.80859375 42.19140625 C69.51440609 48.05972718 70.18400555 53.21854995 70.875 59.4375 C50.085 60.4275 50.085 60.4275 28.875 61.4375 C27.555 57.1475 26.235 52.8575 24.875 48.4375 C21.22412114 41.76160722 16.26365462 38.21112427 9.01171875 35.82421875 C0.05370328 34.20293259 -9.23448412 34.65068998 -17.125 39.4375 C-20.68316656 42.99566656 -21.99467228 45.71065773 -22.375 50.75 C-22.05686297 55.44252118 -21.22665531 58.58373224 -17.6015625 61.78125 C-9.12516824 67.64677177 1.38629255 69.35198372 11.26196289 71.54907227 C31.61304971 76.08458994 55.17102553 81.52313785 67.25 100.25 C73.6087571 111.89005814 74.87522537 125.45230507 71.6875 138.3125 C67.06449339 152.74583049 59.33911238 161.30782675 46.34765625 168.91796875 C26.00763977 179.10364727 -2.62790038 180.25764582 -24.125 173.4375 C-41.55401678 167.44361862 -54.57384545 157.89091691 -63.125 141.4375 C-66.61141903 133.1045754 -68.27723284 125.41923755 -68.125 116.4375 C-65.821125 115.2855625 -64.31675943 115.23920414 -61.75 115.12109375 C-60.40736084 115.0581311 -60.40736084 115.0581311 -59.03759766 114.99389648 C-58.07644043 114.95466064 -57.1152832 114.9154248 -56.125 114.875 C-55.14708496 114.8325415 -54.16916992 114.79008301 -53.16162109 114.74633789 C-44.14653715 114.38330947 -35.14554066 114.33727177 -26.125 114.4375 C-25.77888672 115.59765625 -25.77888672 115.59765625 -25.42578125 116.78125 C-22.5222513 126.05418358 -19.96514729 133.29465037 -11.3828125 138.4296875 C-1.6883992 142.75695157 10.03325758 143.06790078 20.125 139.8125 C24.58183668 137.91198706 26.87443925 135.98422897 28.875 131.4375 C30.44081788 126.74004636 29.71090055 123.06373959 27.984375 118.54296875 C24.72267571 112.35263101 18.08074382 110.50431148 11.82104492 108.44995117 C4.93975178 106.32892068 -2.06843312 104.700647 -9.0625 103 C-47.28731978 93.67435346 -47.28731978 93.67435346 -59.125 78.4375 C-66.13684591 66.20870654 -66.78963241 52.32501542 -64.4765625 38.5859375 C-60.96276837 26.00234996 -53.08829745 16.30506556 -42 9.52734375 C-28.21563427 2.14957527 -15.54217552 0.09809094 0 0 Z " fill="#000000" transform="translate(466.125,61.5625)"/>
<path d="M0 0 C39.93 0 79.86 0 121 0 C121 11.55 121 23.1 121 35 C94.93 35 68.86 35 42 35 C42 45.56 42 56.12 42 67 C67.41 67 92.82 67 119 67 C119 78.55 119 90.1 119 102 C93.59 102 68.18 102 42 102 C42 112.89 42 123.78 42 135 C68.73 135 95.46 135 123 135 C123 146.55 123 158.1 123 170 C82.41 170 41.82 170 0 170 C0 113.9 0 57.8 0 0 Z " fill="#000000" transform="translate(1211,65)"/>
<path d="M0 0 C16.17 0 32.34 0 49 0 C52.25286512 7.8068763 55.35645116 15.52919596 58.16015625 23.48828125 C58.54249924 24.56439667 58.92484222 25.64051208 59.31877136 26.74923706 C60.14070888 29.06302011 60.9612951 31.37728356 61.78063965 33.69198608 C63.99851833 39.95621028 66.22749172 46.21648158 68.45703125 52.4765625 C68.68611553 53.1200659 68.91519981 53.7635693 69.15122604 54.4265728 C74.11678681 68.37145349 79.17639383 82.28159325 84.25 96.1875 C90.27415807 112.7117486 96.27230259 129.24473123 102.17956543 145.81118774 C102.88789591 147.79722314 103.59727142 149.78288616 104.30773926 151.76815796 C105.2761695 154.47578684 106.24037585 157.18487803 107.203125 159.89453125 C107.48953857 160.69371979 107.77595215 161.49290833 108.07104492 162.3163147 C110 167.77030648 110 167.77030648 110 170 C95.48 170 80.96 170 66 170 C64.35 165.09125 62.7 160.1825 61 155.125 C60.47792969 153.57699707 59.95585938 152.02899414 59.41796875 150.43408203 C59.01191406 149.22091309 58.60585938 148.00774414 58.1875 146.7578125 C57.76855469 145.5114502 57.34960938 144.26508789 56.91796875 142.98095703 C56 140 56 140 56 138 C35.54 138.33 15.08 138.66 -6 139 C-9.63 149.23 -13.26 159.46 -17 170 C-31.19 170 -45.38 170 -60 170 C-58.87491578 163.24949466 -58.87491578 163.24949466 -57.73510742 160.06079102 C-57.47857895 159.33556244 -57.22205048 158.61033386 -56.95774841 157.86312866 C-56.67649612 157.08458527 -56.39524384 156.30604187 -56.10546875 155.50390625 C-55.8066127 154.66445465 -55.50775665 153.82500305 -55.19984436 152.96011353 C-54.20085013 150.15904977 -53.19429446 147.36076869 -52.1875 144.5625 C-51.47010033 142.5571467 -50.75298466 140.55169178 -50.03613281 138.54614258 C-43.67551943 120.77832138 -37.21046912 103.04826876 -30.74511719 85.31835938 C-23.52846809 65.51631293 -16.427072 45.6743273 -9.35839844 25.8190918 C-8.95369827 24.68279327 -8.54899811 23.54649475 -8.1320343 22.37576294 C-7.3801896 20.26417359 -6.62898965 18.15235451 -5.87858582 16.04025269 C-5.54216568 15.09505768 -5.20574554 14.14986267 -4.85913086 13.17602539 C-4.42666298 11.95925865 -4.42666298 11.95925865 -3.98545837 10.71791077 C-2.6862022 7.13454038 -1.33835664 3.56895103 0 0 Z M24 49 C23.81874069 49.53347046 23.63748138 50.06694092 23.45072937 50.61657715 C21.55402496 56.19802211 19.65556201 61.77886672 17.75610352 67.359375 C17.0486262 69.43865036 16.34158866 71.51807541 15.63500977 73.59765625 C14.61591953 76.59675479 13.59521857 79.59530109 12.57421875 82.59375 C12.1052845 83.97548401 12.1052845 83.97548401 11.62687683 85.38513184 C10.24418724 89.44129972 8.8309347 93.46906488 7.27661133 97.46289062 C5.83025754 100.84356641 5.83025754 100.84356641 6 104 C18.54 104 31.08 104 44 104 C41.99479262 96.64757293 39.90552737 89.48463591 37.42578125 82.30078125 C37.09708542 81.3397197 36.76838959 80.37865814 36.42973328 79.38847351 C35.3938458 76.36204448 34.35326306 73.33725536 33.3125 70.3125 C32.60320248 68.24294584 31.89421534 66.17328527 31.18554688 64.10351562 C29.46061198 59.06777664 27.73183419 54.03337015 26 49 C25.34 49 24.68 49 24 49 Z " fill="#000000" transform="translate(764,65)"/>
<path d="M0 0 C102.84438776 0 102.84438776 0 122.75 18.0625 C129.4209864 25.05685558 134.77463665 35.31962954 136 45 C136.13148438 46.01191406 136.26296875 47.02382812 136.3984375 48.06640625 C137.90531313 63.05144725 136.07062974 77.82688844 127.125 90.3125 C126.10473617 91.55948912 125.06320734 92.78941738 124 94 C123.24976563 94.88945312 123.24976563 94.88945312 122.484375 95.796875 C111.33338914 108.03048085 94.92860321 112.37815305 79 114 C72.56656311 114.29745297 66.12518165 114.18964282 59.6875 114.125 C50.9321875 114.063125 50.9321875 114.063125 42 114 C42 132.48 42 150.96 42 170 C28.14 170 14.28 170 0 170 C0 113.9 0 57.8 0 0 Z M42 35 C42 49.52 42 64.04 42 79 C46.90875 79.061875 51.8175 79.12375 56.875 79.1875 C59.16606689 79.22846802 59.16606689 79.22846802 61.50341797 79.27026367 C71.53140164 79.33116236 81.00961097 78.98215685 88.59375 71.6484375 C93.19979254 66.24913208 93.55470343 60.81769782 93.33984375 53.93359375 C92.60535195 47.59332546 90.15771316 43.64391472 85.25 39.625 C77.12782879 33.51630821 66.5934725 34.76198265 57 34.875 C52.05 34.91625 47.1 34.9575 42 35 Z " fill="#000000" transform="translate(38,65)"/>
<path d="M0 0 C13.86 0 27.72 0 42 0 C42 44.55 42 89.1 42 135 C66.75 135 91.5 135 117 135 C117 146.55 117 158.1 117 170 C78.39 170 39.78 170 0 170 C0 113.9 0 57.8 0 0 Z " fill="#000000" transform="translate(1346,65)"/>
<path d="M0 0 C13.86 0 27.72 0 42 0 C42 56.1 42 112.2 42 170 C28.14 170 14.28 170 0 170 C0 113.9 0 57.8 0 0 Z " fill="#000000" transform="translate(341,65)"/>
</svg>
